<svg xmlns="http://www.w3.org/2000/svg" viewBox="0 0 64 64" width="64" height="64"><g class="nc-icon-wrapper" stroke="none" fill="#111111"><path d="M32,15h0a7,7,0,0,1-7-7h0a7,7,0,0,1,7-7h0a7,7,0,0,1,7,7h0A7,7,0,0,1,32,15Z" data-color="color-2"></path><path d="M38,17H37l-5,5-5-5H26a6,6,0,0,0-6,6V33H44V23A6,6,0,0,0,38,17Z" data-color="color-2"></path><path d="M53,35H11a1,1,0,0,0,0,2h3V62a1,1,0,0,0,1,1H49a1,1,0,0,0,1-1V37h3a1,1,0,0,0,0-2ZM41.707,43.707l-12,12a1,1,0,0,1-1.414,0l-6-6a1,1,0,0,1,1.414-1.414L29,53.586,40.293,42.293a1,1,0,0,1,1.414,1.414Z" fill="#111111"></path></g></svg>